<svg xmlns="http://www.w3.org/2000/svg" width="819.609" height="414.12"><style>.st0{fill:#333}.st1{opacity:.63}.st2{fill:#00a9d7}</style><g id="Layer_2"><path class="st0" d="M756.142 348.616H66.031V56.694h5v286.922h685.111z"/><path class="st0" d="M52.172 69.948l2.929 2.728 13.426-14.447 13.43 14.447 2.929-2.728-16.359-17.592zM742.888 362.476l-2.729-2.93 14.448-13.426-14.448-13.43 2.729-2.929 17.592 16.359z"/><g class="st1"><path class="st2" d="M310.13 171.272c9.652 0 9.668-15 0-15-9.652 0-9.668 15 0 15z"/></g><g class="st1"><path class="st2" d="M370.715 119.906c9.652 0 9.668-15 0-15-9.652 0-9.668 15 0 15z"/></g><g class="st1"><path class="st2" d="M401.008 202.881c9.652 0 9.668-15 0-15-9.652 0-9.668 15 0 15z"/></g><g class="st1"><path class="st2" d="M323.301 200.247c9.652 0 9.668-15 0-15-9.652 0-9.668 15 0 15z"/></g><g class="st1"><path class="st2" d="M437.886 158.101c9.652 0 9.668-15 0-15-9.652 0-9.668 15 0 15z"/></g><g class="st1"><path class="st2" d="M458.959 129.126c9.652 0 9.668-15 0-15-9.652 0-9.668 15 0 15z"/></g><g class="st1"><path class="st2" d="M516.91 171.272c9.652 0 9.668-15 0-15-9.652 0-9.668 15 0 15z"/></g><g class="st1"><path class="st2" d="M510.325 122.54c9.652 0 9.668-15 0-15-9.652 0-9.668 15 0 15z"/></g><g class="st1"><path class="st2" d="M491.886 146.247c9.652 0 9.668-15 0-15-9.652 0-9.668 15 0 15z"/></g><g class="st1"><path class="st2" d="M464.227 206.833c9.652 0 9.668-15 0-15-9.652 0-9.668 15 0 15z"/></g><g class="st1"><path class="st2" d="M397.056 254.247c9.652 0 9.668-15 0-15-9.651 0-9.667 15 0 15z"/></g><g class="st1"><path class="st2" d="M267.984 264.784c9.652 0 9.668-15 0-15-9.652 0-9.668 15 0 15z"/></g><g class="st1"><path class="st2" d="M265.349 217.369c9.652 0 9.668-15 0-15-9.651 0-9.667 15 0 15z"/></g><g class="st1"><path class="st2" d="M310.13 259.516c9.652 0 9.668-15 0-15-9.652 0-9.668 15 0 15z"/></g><g class="st1"><path class="st2" d="M194.228 285.857c9.652 0 9.668-15 0-15-9.652 0-9.668 15 0 15z"/></g><g class="st1"><path class="st2" d="M208.715 245.028c9.652 0 9.668-15 0-15-9.651 0-9.667 15 0 15z"/></g><g class="st1"><path class="st2" d="M232.423 292.442c9.652 0 9.668-15 0-15-9.652 0-9.668 15 0 15z"/></g><g class="st1"><path class="st2" d="M156.033 233.174c9.652 0 9.668-15 0-15-9.652 0-9.668 15 0 15z"/></g><g class="st1"><path class="st2" d="M121.789 275.32c9.652 0 9.668-15 0-15-9.652 0-9.668 15 0 15z"/></g><g class="st1"><path class="st2" d="M148.13 338.54c9.652 0 9.668-15 0-15-9.652 0-9.668 15 0 15z"/></g><g class="st1"><path class="st2" d="M158.667 270.052c9.652 0 9.668-15 0-15-9.652 0-9.668 15 0 15z"/></g><g class="st1"><path class="st2" d="M115.203 316.15c9.652 0 9.668-15 0-15-9.651 0-9.667 15 0 15z"/></g><g class="st1"><path class="st2" d="M153.398 301.662c9.652 0 9.668-15 0-15-9.651 0-9.667 15 0 15z"/></g><g class="st1"><path class="st2" d="M348.325 241.077c9.652 0 9.668-15 0-15-9.652 0-9.668 15 0 15z"/></g><g class="st1"><path class="st2" d="M335.154 289.808c9.652 0 9.668-15 0-15-9.652 0-9.668 15 0 15z"/></g><g class="st1"><path class="st2" d="M281.154 296.393c9.652 0 9.668-15 0-15-9.651 0-9.667 15 0 15z"/></g><g class="st1"><path class="st2" d="M229.789 204.199c9.652 0 9.668-15 0-15-9.652 0-9.668 15 0 15z"/></g><g class="st1"><path class="st2" d="M239.008 251.613c9.652 0 9.668-15 0-15-9.652 0-9.668 15 0 15z"/></g><g class="st1"><path class="st2" d="M258.764 162.052c9.652 0 9.668-15 0-15-9.652 0-9.668 15 0 15z"/></g><g class="st1"><path class="st2" d="M304.862 227.906c9.652 0 9.668-15 0-15-9.652 0-9.668 15 0 15z"/></g><g class="st1"><path class="st2" d="M377.3 154.15c9.652 0 9.668-15 0-15-9.651 0-9.667 15 0 15z"/></g><g class="st1"><path class="st2" d="M354.91 189.711c9.652 0 9.668-15 0-15-9.652 0-9.668 15 0 15z"/></g><g class="st1"><path class="st2" d="M335.154 137.028c9.652 0 9.668-15 0-15-9.652 0-9.668 15 0 15z"/></g><g class="st1"><path class="st2" d="M375.983 223.955c9.652 0 9.668-15 0-15-9.651 0-9.667 15 0 15z"/></g><g class="st1"><path class="st2" d="M422.081 230.54c9.652 0 9.668-15 0-15-9.652 0-9.668 15 0 15z"/></g><g class="st1"><path class="st2" d="M431.3 191.028c9.652 0 9.668-15 0-15-9.651 0-9.667 15 0 15z"/></g><g class="st1"><path class="st2" d="M404.959 167.321c9.652 0 9.668-15 0-15-9.652 0-9.668 15 0 15z"/></g><g class="st1"><path class="st2" d="M412.861 133.077c9.652 0 9.668-15 0-15-9.651 0-9.667 15 0 15z"/></g><g class="st1"><path class="st2" d="M465.544 163.369c9.652 0 9.668-15 0-15-9.652 0-9.668 15 0 15z"/></g><g class="st1"><path class="st2" d="M483.983 188.394c9.652 0 9.668-15 0-15-9.652 0-9.668 15 0 15z"/></g><g class="st1"><path class="st2" d="M536.666 150.199c9.652 0 9.668-15 0-15-9.652 0-9.668 15 0 15z"/></g><g class="st1"><path class="st2" d="M559.056 88.296c9.652 0 9.668-15 0-15-9.652 0-9.668 15 0 15z"/></g><g class="st1"><path class="st2" d="M586.715 150.199c9.652 0 9.668-15 0-15-9.652 0-9.668 15 0 15z"/></g><g class="st1"><path class="st2" d="M543.251 204.199c9.652 0 9.668-15 0-15-9.651 0-9.667 15 0 15z"/></g><g class="st1"><path class="st2" d="M509.007 210.784c9.652 0 9.668-15 0-15-9.651 0-9.667 15 0 15z"/></g><g class="st1"><path class="st2" d="M615.69 218.686c9.652 0 9.668-15 0-15-9.652 0-9.668 15 0 15z"/></g><g class="st1"><path class="st2" d="M585.398 202.881c9.652 0 9.668-15 0-15-9.652 0-9.668 15 0 15z"/></g><g class="st1"><path class="st2" d="M605.154 175.223c9.652 0 9.668-15 0-15-9.652 0-9.668 15 0 15z"/></g><g class="st1"><path class="st2" d="M620.958 115.955c9.652 0 9.668-15 0-15-9.651 0-9.667 15 0 15z"/></g><g class="st1"><path class="st2" d="M582.763 121.223c9.652 0 9.668-15 0-15-9.651 0-9.667 15 0 15z"/></g><g class="st1"><path class="st2" d="M548.52 114.638c9.652 0 9.668-15 0-15-9.652 0-9.668 15 0 15z"/></g><g class="st1"><path class="st2" d="M560.373 140.979c9.652 0 9.668-15 0-15-9.652 0-9.668 15 0 15z"/></g><g class="st1"><path class="st2" d="M551.154 173.906c9.652 0 9.668-15 0-15-9.652 0-9.668 15 0 15z"/></g><g class="st1"><path class="st2" d="M623.593 156.784c9.652 0 9.668-15 0-15-9.652 0-9.668 15 0 15z"/></g><g class="st1"><path class="st2" d="M601.202 89.613c9.652 0 9.668-15 0-15-9.651 0-9.667 15 0 15z"/></g><g class="st1"><path class="st2" d="M656.519 72.492c9.652 0 9.668-15 0-15-9.651 0-9.667 15 0 15z"/></g><g class="st1"><path class="st2" d="M664.422 138.345c9.652 0 9.668-15 0-15-9.652 0-9.668 15 0 15z"/></g><g class="st1"><path class="st2" d="M651.251 110.687c9.652 0 9.668-15 0-15-9.652 0-9.668 15 0 15z"/></g><g class="st1"><path class="st2" d="M688.129 108.052c9.652 0 9.668-15 0-15-9.652 0-9.668 15 0 15z"/></g><g class="st1"><path class="st2" d="M657.836 159.418c9.652 0 9.668-15 0-15-9.651 0-9.667 15 0 15z"/></g><g class="st1"><path class="st2" d="M639.397 137.028c9.652 0 9.668-15 0-15-9.651 0-9.667 15 0 15z"/></g><g class="st1"><path class="st2" d="M671.007 88.296c9.652 0 9.668-15 0-15-9.652 0-9.668 15 0 15z"/></g><g class="st1"><path class="st2" d="M649.934 119.906c9.652 0 9.668-15 0-15-9.652 0-9.668 15 0 15z"/></g><g class="st1"><path class="st2" d="M564.324 93.565c9.652 0 9.668-15 0-15-9.651 0-9.667 15 0 15z"/></g><g class="st1"><path class="st2" d="M540.617 138.345c9.652 0 9.668-15 0-15-9.652 0-9.668 15 0 15z"/></g><g class="st1"><path class="st2" d="M449.739 121.223c9.652 0 9.668-15 0-15-9.651 0-9.667 15 0 15z"/></g><g class="st1"><path class="st2" d="M395.739 106.735c9.652 0 9.668-15 0-15-9.651 0-9.667 15 0 15z"/></g><g class="st1"><path class="st2" d="M369.398 133.077c9.652 0 9.668-15 0-15-9.652 0-9.668 15 0 15z"/></g><g class="st1"><path class="st2" d="M293.008 138.345c9.652 0 9.668-15 0-15-9.652 0-9.668 15 0 15z"/></g><g class="st1"><path class="st2" d="M294.325 168.638c9.652 0 9.668-15 0-15-9.652 0-9.668 15 0 15z"/></g><g class="st1"><path class="st2" d="M308.813 205.516c9.652 0 9.668-15 0-15-9.652 0-9.668 15 0 15z"/></g><g class="st1"><path class="st2" d="M240.325 205.516c9.652 0 9.668-15 0-15-9.652 0-9.668 15 0 15z"/></g><g class="st1"><path class="st2" d="M266.667 194.979c9.652 0 9.668-15 0-15-9.652 0-9.668 15 0 15z"/></g><g class="st1"><path class="st2" d="M270.618 230.54c9.652 0 9.668-15 0-15-9.652 0-9.668 15 0 15z"/></g><g class="st1"><path class="st2" d="M240.325 268.735c9.652 0 9.668-15 0-15-9.652 0-9.668 15 0 15z"/></g><g class="st1"><path class="st2" d="M221.886 251.613c9.652 0 9.668-15 0-15-9.652 0-9.668 15 0 15z"/></g><g class="st1"><path class="st2" d="M192.911 254.247c9.652 0 9.668-15 0-15-9.652 0-9.668 15 0 15z"/></g><g class="st1"><path class="st2" d="M154.715 279.272c9.652 0 9.668-15 0-15-9.651 0-9.667 15 0 15z"/></g><g class="st1"><path class="st2" d="M163.935 287.174c9.652 0 9.668-15 0-15-9.652 0-9.668 15 0 15z"/></g><g class="st1"><path class="st2" d="M179.74 297.711c9.652 0 9.668-15 0-15-9.652 0-9.668 15 0 15z"/></g><g class="st1"><path class="st2" d="M204.764 272.686c9.652 0 9.668-15 0-15-9.652 0-9.668 15 0 15z"/></g><g class="st1"><path class="st2" d="M261.398 251.613c9.652 0 9.668-15 0-15-9.652 0-9.668 15 0 15z"/></g><g class="st1"><path class="st2" d="M312.764 274.003c9.652 0 9.668-15 0-15-9.652 0-9.668 15 0 15z"/></g><g class="st1"><path class="st2" d="M325.935 237.125c9.652 0 9.668-15 0-15-9.652 0-9.668 15 0 15z"/></g><g class="st1"><path class="st2" d="M368.081 214.735c9.652 0 9.668-15 0-15-9.652 0-9.668 15 0 15z"/></g><g class="st1"><path class="st2" d="M410.227 201.564c9.652 0 9.668-15 0-15-9.652 0-9.668 15 0 15z"/></g><g class="st1"><path class="st2" d="M464.227 181.808c9.652 0 9.668-15 0-15-9.652 0-9.668 15 0 15z"/></g><g class="st1"><path class="st2" d="M503.739 160.735c9.652 0 9.668-15 0-15-9.652 0-9.668 15 0 15z"/></g><g class="st1"><path class="st2" d="M457.642 218.686c9.652 0 9.668-15 0-15-9.652 0-9.668 15 0 15z"/></g><g class="st1"><path class="st2" d="M440.52 250.296c9.652 0 9.668-15 0-15-9.652 0-9.668 15 0 15z"/></g><g class="st1"><path class="st2" d="M366.764 246.345c9.652 0 9.668-15 0-15-9.652 0-9.668 15 0 15z"/></g><g class="st1"><path class="st2" d="M340.422 271.369c9.652 0 9.668-15 0-15-9.651 0-9.667 15 0 15z"/></g><g class="st1"><path class="st2" d="M589.349 162.052c9.652 0 9.668-15 0-15-9.652 0-9.668 15 0 15z"/></g><g class="st1"><path class="st2" d="M537.983 185.76c9.652 0 9.668-15 0-15-9.652 0-9.668 15 0 15z"/></g><g class="st1"><path class="st2" d="M628.861 130.443c9.652 0 9.668-15 0-15-9.652 0-9.668 15 0 15z"/></g><g class="st1"><path class="st2" d="M597.251 125.174c9.652 0 9.668-15 0-15-9.652 0-9.668 15 0 15z"/></g><g class="st1"><path class="st2" d="M594.617 160.735c9.652 0 9.668-15 0-15-9.652 0-9.668 15 0 15z"/></g><g class="st1"><path class="st2" d="M224.52 283.223c9.652 0 9.668-15 0-15-9.652 0-9.668 15 0 15z"/></g><g class="st1"><path class="st2" d="M186.325 304.296c9.652 0 9.668-15 0-15-9.652 0-9.668 15 0 15z"/></g><g class="st1"><path class="st2" d="M698.666 143.613c9.652 0 9.668-15 0-15-9.652 0-9.668 15 0 15z"/></g><path transform="rotate(-19.3 397.772 191.305)" fill="#ff414e" d="M98.383 189.281h598.665v4H98.383z"/></g></svg>