<?xml version="1.0" encoding="utf-8" standalone="no"?>
<!DOCTYPE svg PUBLIC "-//W3C//DTD SVG 1.1//EN"
  "http://www.w3.org/Graphics/SVG/1.1/DTD/svg11.dtd">
<svg height="494.754375pt" version="1.1" viewBox="0 0 1052.203125 494.754375" width="1052.203125pt" xmlns="http://www.w3.org/2000/svg" xmlns:xlink="http://www.w3.org/1999/xlink">
 <metadata>
  <rdf:RDF xmlns:cc="http://creativecommons.org/ns#" xmlns:dc="http://purl.org/dc/elements/1.1/" xmlns:rdf="http://www.w3.org/1999/02/22-rdf-syntax-ns#">
   <cc:Work>
    <dc:type rdf:resource="http://purl.org/dc/dcmitype/StillImage"/>
    <dc:date>2021-04-21T20:49:47.584092</dc:date>
    <dc:format>image/svg+xml</dc:format>
    <dc:creator>
     <cc:Agent>
      <dc:title>Matplotlib v3.4.0, https://matplotlib.org/</dc:title>
     </cc:Agent>
    </dc:creator>
   </cc:Work>
  </rdf:RDF>
 </metadata>
 <defs>
  <style type="text/css">*{stroke-linecap:butt;stroke-linejoin:round;}</style>
 </defs>
 <g id="figure_1">
  <g id="patch_1">
   <path d="M 0 494.754375 
L 1052.203125 494.754375 
L 1052.203125 0 
L 0 0 
z
" style="fill:none;"/>
  </g>
  <g id="axes_1">
   <g id="patch_2">
    <path d="M 40.603125 457.198125 
L 497.14858 457.198125 
L 497.14858 22.318125 
L 40.603125 22.318125 
z
" style="fill:#ffffff;"/>
   </g>
   <g id="matplotlib.axis_1">
    <g id="xtick_1">
     <g id="line2d_1">
      <defs>
       <path d="M 0 0 
L 0 3.5 
" id="mff746ffc27" style="stroke:#000000;stroke-width:0.8;"/>
      </defs>
      <g>
       <use style="stroke:#000000;stroke-width:0.8;" x="154.739489" xlink:href="#mff746ffc27" y="457.198125"/>
      </g>
     </g>
     <g id="text_1">
      <!-- Survived -->
      <g transform="translate(132.782457 471.796562)scale(0.1 -0.1)">
       <defs>
        <path d="M 3425 4513 
L 3425 3897 
Q 3066 4069 2747 4153 
Q 2428 4238 2131 4238 
Q 1616 4238 1336 4038 
Q 1056 3838 1056 3469 
Q 1056 3159 1242 3001 
Q 1428 2844 1947 2747 
L 2328 2669 
Q 3034 2534 3370 2195 
Q 3706 1856 3706 1288 
Q 3706 609 3251 259 
Q 2797 -91 1919 -91 
Q 1588 -91 1214 -16 
Q 841 59 441 206 
L 441 856 
Q 825 641 1194 531 
Q 1563 422 1919 422 
Q 2459 422 2753 634 
Q 3047 847 3047 1241 
Q 3047 1584 2836 1778 
Q 2625 1972 2144 2069 
L 1759 2144 
Q 1053 2284 737 2584 
Q 422 2884 422 3419 
Q 422 4038 858 4394 
Q 1294 4750 2059 4750 
Q 2388 4750 2728 4690 
Q 3069 4631 3425 4513 
z
" id="DejaVuSans-53" transform="scale(0.015625)"/>
        <path d="M 544 1381 
L 544 3500 
L 1119 3500 
L 1119 1403 
Q 1119 906 1312 657 
Q 1506 409 1894 409 
Q 2359 409 2629 706 
Q 2900 1003 2900 1516 
L 2900 3500 
L 3475 3500 
L 3475 0 
L 2900 0 
L 2900 538 
Q 2691 219 2414 64 
Q 2138 -91 1772 -91 
Q 1169 -91 856 284 
Q 544 659 544 1381 
z
M 1991 3584 
L 1991 3584 
z
" id="DejaVuSans-75" transform="scale(0.015625)"/>
        <path d="M 2631 2963 
Q 2534 3019 2420 3045 
Q 2306 3072 2169 3072 
Q 1681 3072 1420 2755 
Q 1159 2438 1159 1844 
L 1159 0 
L 581 0 
L 581 3500 
L 1159 3500 
L 1159 2956 
Q 1341 3275 1631 3429 
Q 1922 3584 2338 3584 
Q 2397 3584 2469 3576 
Q 2541 3569 2628 3553 
L 2631 2963 
z
" id="DejaVuSans-72" transform="scale(0.015625)"/>
        <path d="M 191 3500 
L 800 3500 
L 1894 563 
L 2988 3500 
L 3597 3500 
L 2284 0 
L 1503 0 
L 191 3500 
z
" id="DejaVuSans-76" transform="scale(0.015625)"/>
        <path d="M 603 3500 
L 1178 3500 
L 1178 0 
L 603 0 
L 603 3500 
z
M 603 4863 
L 1178 4863 
L 1178 4134 
L 603 4134 
L 603 4863 
z
" id="DejaVuSans-69" transform="scale(0.015625)"/>
        <path d="M 3597 1894 
L 3597 1613 
L 953 1613 
Q 991 1019 1311 708 
Q 1631 397 2203 397 
Q 2534 397 2845 478 
Q 3156 559 3463 722 
L 3463 178 
Q 3153 47 2828 -22 
Q 2503 -91 2169 -91 
Q 1331 -91 842 396 
Q 353 884 353 1716 
Q 353 2575 817 3079 
Q 1281 3584 2069 3584 
Q 2775 3584 3186 3129 
Q 3597 2675 3597 1894 
z
M 3022 2063 
Q 3016 2534 2758 2815 
Q 2500 3097 2075 3097 
Q 1594 3097 1305 2825 
Q 1016 2553 972 2059 
L 3022 2063 
z
" id="DejaVuSans-65" transform="scale(0.015625)"/>
        <path d="M 2906 2969 
L 2906 4863 
L 3481 4863 
L 3481 0 
L 2906 0 
L 2906 525 
Q 2725 213 2448 61 
Q 2172 -91 1784 -91 
Q 1150 -91 751 415 
Q 353 922 353 1747 
Q 353 2572 751 3078 
Q 1150 3584 1784 3584 
Q 2172 3584 2448 3432 
Q 2725 3281 2906 2969 
z
M 947 1747 
Q 947 1113 1208 752 
Q 1469 391 1925 391 
Q 2381 391 2643 752 
Q 2906 1113 2906 1747 
Q 2906 2381 2643 2742 
Q 2381 3103 1925 3103 
Q 1469 3103 1208 2742 
Q 947 2381 947 1747 
z
" id="DejaVuSans-64" transform="scale(0.015625)"/>
       </defs>
       <use xlink:href="#DejaVuSans-53"/>
       <use x="63.476562" xlink:href="#DejaVuSans-75"/>
       <use x="126.855469" xlink:href="#DejaVuSans-72"/>
       <use x="167.96875" xlink:href="#DejaVuSans-76"/>
       <use x="227.148438" xlink:href="#DejaVuSans-69"/>
       <use x="254.931641" xlink:href="#DejaVuSans-76"/>
       <use x="314.111328" xlink:href="#DejaVuSans-65"/>
       <use x="375.634766" xlink:href="#DejaVuSans-64"/>
      </g>
     </g>
    </g>
    <g id="xtick_2">
     <g id="line2d_2">
      <g>
       <use style="stroke:#000000;stroke-width:0.8;" x="383.012216" xlink:href="#mff746ffc27" y="457.198125"/>
      </g>
     </g>
     <g id="text_2">
      <!-- Not Survived -->
      <g transform="translate(350.705966 471.796562)scale(0.1 -0.1)">
       <defs>
        <path d="M 628 4666 
L 1478 4666 
L 3547 763 
L 3547 4666 
L 4159 4666 
L 4159 0 
L 3309 0 
L 1241 3903 
L 1241 0 
L 628 0 
L 628 4666 
z
" id="DejaVuSans-4e" transform="scale(0.015625)"/>
        <path d="M 1959 3097 
Q 1497 3097 1228 2736 
Q 959 2375 959 1747 
Q 959 1119 1226 758 
Q 1494 397 1959 397 
Q 2419 397 2687 759 
Q 2956 1122 2956 1747 
Q 2956 2369 2687 2733 
Q 2419 3097 1959 3097 
z
M 1959 3584 
Q 2709 3584 3137 3096 
Q 3566 2609 3566 1747 
Q 3566 888 3137 398 
Q 2709 -91 1959 -91 
Q 1206 -91 779 398 
Q 353 888 353 1747 
Q 353 2609 779 3096 
Q 1206 3584 1959 3584 
z
" id="DejaVuSans-6f" transform="scale(0.015625)"/>
        <path d="M 1172 4494 
L 1172 3500 
L 2356 3500 
L 2356 3053 
L 1172 3053 
L 1172 1153 
Q 1172 725 1289 603 
Q 1406 481 1766 481 
L 2356 481 
L 2356 0 
L 1766 0 
Q 1100 0 847 248 
Q 594 497 594 1153 
L 594 3053 
L 172 3053 
L 172 3500 
L 594 3500 
L 594 4494 
L 1172 4494 
z
" id="DejaVuSans-74" transform="scale(0.015625)"/>
        <path id="DejaVuSans-20" transform="scale(0.015625)"/>
       </defs>
       <use xlink:href="#DejaVuSans-4e"/>
       <use x="74.804688" xlink:href="#DejaVuSans-6f"/>
       <use x="135.986328" xlink:href="#DejaVuSans-74"/>
       <use x="175.195312" xlink:href="#DejaVuSans-20"/>
       <use x="206.982422" xlink:href="#DejaVuSans-53"/>
       <use x="270.458984" xlink:href="#DejaVuSans-75"/>
       <use x="333.837891" xlink:href="#DejaVuSans-72"/>
       <use x="374.951172" xlink:href="#DejaVuSans-76"/>
       <use x="434.130859" xlink:href="#DejaVuSans-69"/>
       <use x="461.914062" xlink:href="#DejaVuSans-76"/>
       <use x="521.09375" xlink:href="#DejaVuSans-65"/>
       <use x="582.617188" xlink:href="#DejaVuSans-64"/>
      </g>
     </g>
    </g>
    <g id="text_3">
     <!-- Survived -->
     <g transform="translate(246.918821 485.474687)scale(0.1 -0.1)">
      <use xlink:href="#DejaVuSans-53"/>
      <use x="63.476562" xlink:href="#DejaVuSans-75"/>
      <use x="126.855469" xlink:href="#DejaVuSans-72"/>
      <use x="167.96875" xlink:href="#DejaVuSans-76"/>
      <use x="227.148438" xlink:href="#DejaVuSans-69"/>
      <use x="254.931641" xlink:href="#DejaVuSans-76"/>
      <use x="314.111328" xlink:href="#DejaVuSans-65"/>
      <use x="375.634766" xlink:href="#DejaVuSans-64"/>
     </g>
    </g>
   </g>
   <g id="matplotlib.axis_2">
    <g id="ytick_1">
     <g id="line2d_3">
      <path clip-path="url(#pe75a318144)" d="M 40.603125 439.51737 
L 497.14858 439.51737 
" style="fill:none;stroke:#b0b0b0;stroke-linecap:square;stroke-width:0.8;"/>
     </g>
     <g id="line2d_4">
      <defs>
       <path d="M 0 0 
L -3.5 0 
" id="m14f33c8489" style="stroke:#000000;stroke-width:0.8;"/>
      </defs>
      <g>
       <use style="stroke:#000000;stroke-width:0.8;" x="40.603125" xlink:href="#m14f33c8489" y="439.51737"/>
      </g>
     </g>
     <g id="text_4">
      <!-- 0 -->
      <g transform="translate(27.240625 443.316589)scale(0.1 -0.1)">
       <defs>
        <path d="M 2034 4250 
Q 1547 4250 1301 3770 
Q 1056 3291 1056 2328 
Q 1056 1369 1301 889 
Q 1547 409 2034 409 
Q 2525 409 2770 889 
Q 3016 1369 3016 2328 
Q 3016 3291 2770 3770 
Q 2525 4250 2034 4250 
z
M 2034 4750 
Q 2819 4750 3233 4129 
Q 3647 3509 3647 2328 
Q 3647 1150 3233 529 
Q 2819 -91 2034 -91 
Q 1250 -91 836 529 
Q 422 1150 422 2328 
Q 422 3509 836 4129 
Q 1250 4750 2034 4750 
z
" id="DejaVuSans-30" transform="scale(0.015625)"/>
       </defs>
       <use xlink:href="#DejaVuSans-30"/>
      </g>
     </g>
    </g>
    <g id="ytick_2">
     <g id="line2d_5">
      <path clip-path="url(#pe75a318144)" d="M 40.603125 389.838374 
L 497.14858 389.838374 
" style="fill:none;stroke:#b0b0b0;stroke-linecap:square;stroke-width:0.8;"/>
     </g>
     <g id="line2d_6">
      <g>
       <use style="stroke:#000000;stroke-width:0.8;" x="40.603125" xlink:href="#m14f33c8489" y="389.838374"/>
      </g>
     </g>
     <g id="text_5">
      <!-- 10 -->
      <g transform="translate(20.878125 393.637592)scale(0.1 -0.1)">
       <defs>
        <path d="M 794 531 
L 1825 531 
L 1825 4091 
L 703 3866 
L 703 4441 
L 1819 4666 
L 2450 4666 
L 2450 531 
L 3481 531 
L 3481 0 
L 794 0 
L 794 531 
z
" id="DejaVuSans-31" transform="scale(0.015625)"/>
       </defs>
       <use xlink:href="#DejaVuSans-31"/>
       <use x="63.623047" xlink:href="#DejaVuSans-30"/>
      </g>
     </g>
    </g>
    <g id="ytick_3">
     <g id="line2d_7">
      <path clip-path="url(#pe75a318144)" d="M 40.603125 340.159377 
L 497.14858 340.159377 
" style="fill:none;stroke:#b0b0b0;stroke-linecap:square;stroke-width:0.8;"/>
     </g>
     <g id="line2d_8">
      <g>
       <use style="stroke:#000000;stroke-width:0.8;" x="40.603125" xlink:href="#m14f33c8489" y="340.159377"/>
      </g>
     </g>
     <g id="text_6">
      <!-- 20 -->
      <g transform="translate(20.878125 343.958596)scale(0.1 -0.1)">
       <defs>
        <path d="M 1228 531 
L 3431 531 
L 3431 0 
L 469 0 
L 469 531 
Q 828 903 1448 1529 
Q 2069 2156 2228 2338 
Q 2531 2678 2651 2914 
Q 2772 3150 2772 3378 
Q 2772 3750 2511 3984 
Q 2250 4219 1831 4219 
Q 1534 4219 1204 4116 
Q 875 4013 500 3803 
L 500 4441 
Q 881 4594 1212 4672 
Q 1544 4750 1819 4750 
Q 2544 4750 2975 4387 
Q 3406 4025 3406 3419 
Q 3406 3131 3298 2873 
Q 3191 2616 2906 2266 
Q 2828 2175 2409 1742 
Q 1991 1309 1228 531 
z
" id="DejaVuSans-32" transform="scale(0.015625)"/>
       </defs>
       <use xlink:href="#DejaVuSans-32"/>
       <use x="63.623047" xlink:href="#DejaVuSans-30"/>
      </g>
     </g>
    </g>
    <g id="ytick_4">
     <g id="line2d_9">
      <path clip-path="url(#pe75a318144)" d="M 40.603125 290.48038 
L 497.14858 290.48038 
" style="fill:none;stroke:#b0b0b0;stroke-linecap:square;stroke-width:0.8;"/>
     </g>
     <g id="line2d_10">
      <g>
       <use style="stroke:#000000;stroke-width:0.8;" x="40.603125" xlink:href="#m14f33c8489" y="290.48038"/>
      </g>
     </g>
     <g id="text_7">
      <!-- 30 -->
      <g transform="translate(20.878125 294.279599)scale(0.1 -0.1)">
       <defs>
        <path d="M 2597 2516 
Q 3050 2419 3304 2112 
Q 3559 1806 3559 1356 
Q 3559 666 3084 287 
Q 2609 -91 1734 -91 
Q 1441 -91 1130 -33 
Q 819 25 488 141 
L 488 750 
Q 750 597 1062 519 
Q 1375 441 1716 441 
Q 2309 441 2620 675 
Q 2931 909 2931 1356 
Q 2931 1769 2642 2001 
Q 2353 2234 1838 2234 
L 1294 2234 
L 1294 2753 
L 1863 2753 
Q 2328 2753 2575 2939 
Q 2822 3125 2822 3475 
Q 2822 3834 2567 4026 
Q 2313 4219 1838 4219 
Q 1578 4219 1281 4162 
Q 984 4106 628 3988 
L 628 4550 
Q 988 4650 1302 4700 
Q 1616 4750 1894 4750 
Q 2613 4750 3031 4423 
Q 3450 4097 3450 3541 
Q 3450 3153 3228 2886 
Q 3006 2619 2597 2516 
z
" id="DejaVuSans-33" transform="scale(0.015625)"/>
       </defs>
       <use xlink:href="#DejaVuSans-33"/>
       <use x="63.623047" xlink:href="#DejaVuSans-30"/>
      </g>
     </g>
    </g>
    <g id="ytick_5">
     <g id="line2d_11">
      <path clip-path="url(#pe75a318144)" d="M 40.603125 240.801384 
L 497.14858 240.801384 
" style="fill:none;stroke:#b0b0b0;stroke-linecap:square;stroke-width:0.8;"/>
     </g>
     <g id="line2d_12">
      <g>
       <use style="stroke:#000000;stroke-width:0.8;" x="40.603125" xlink:href="#m14f33c8489" y="240.801384"/>
      </g>
     </g>
     <g id="text_8">
      <!-- 40 -->
      <g transform="translate(20.878125 244.600603)scale(0.1 -0.1)">
       <defs>
        <path d="M 2419 4116 
L 825 1625 
L 2419 1625 
L 2419 4116 
z
M 2253 4666 
L 3047 4666 
L 3047 1625 
L 3713 1625 
L 3713 1100 
L 3047 1100 
L 3047 0 
L 2419 0 
L 2419 1100 
L 313 1100 
L 313 1709 
L 2253 4666 
z
" id="DejaVuSans-34" transform="scale(0.015625)"/>
       </defs>
       <use xlink:href="#DejaVuSans-34"/>
       <use x="63.623047" xlink:href="#DejaVuSans-30"/>
      </g>
     </g>
    </g>
    <g id="ytick_6">
     <g id="line2d_13">
      <path clip-path="url(#pe75a318144)" d="M 40.603125 191.122387 
L 497.14858 191.122387 
" style="fill:none;stroke:#b0b0b0;stroke-linecap:square;stroke-width:0.8;"/>
     </g>
     <g id="line2d_14">
      <g>
       <use style="stroke:#000000;stroke-width:0.8;" x="40.603125" xlink:href="#m14f33c8489" y="191.122387"/>
      </g>
     </g>
     <g id="text_9">
      <!-- 50 -->
      <g transform="translate(20.878125 194.921606)scale(0.1 -0.1)">
       <defs>
        <path d="M 691 4666 
L 3169 4666 
L 3169 4134 
L 1269 4134 
L 1269 2991 
Q 1406 3038 1543 3061 
Q 1681 3084 1819 3084 
Q 2600 3084 3056 2656 
Q 3513 2228 3513 1497 
Q 3513 744 3044 326 
Q 2575 -91 1722 -91 
Q 1428 -91 1123 -41 
Q 819 9 494 109 
L 494 744 
Q 775 591 1075 516 
Q 1375 441 1709 441 
Q 2250 441 2565 725 
Q 2881 1009 2881 1497 
Q 2881 1984 2565 2268 
Q 2250 2553 1709 2553 
Q 1456 2553 1204 2497 
Q 953 2441 691 2322 
L 691 4666 
z
" id="DejaVuSans-35" transform="scale(0.015625)"/>
       </defs>
       <use xlink:href="#DejaVuSans-35"/>
       <use x="63.623047" xlink:href="#DejaVuSans-30"/>
      </g>
     </g>
    </g>
    <g id="ytick_7">
     <g id="line2d_15">
      <path clip-path="url(#pe75a318144)" d="M 40.603125 141.443391 
L 497.14858 141.443391 
" style="fill:none;stroke:#b0b0b0;stroke-linecap:square;stroke-width:0.8;"/>
     </g>
     <g id="line2d_16">
      <g>
       <use style="stroke:#000000;stroke-width:0.8;" x="40.603125" xlink:href="#m14f33c8489" y="141.443391"/>
      </g>
     </g>
     <g id="text_10">
      <!-- 60 -->
      <g transform="translate(20.878125 145.24261)scale(0.1 -0.1)">
       <defs>
        <path d="M 2113 2584 
Q 1688 2584 1439 2293 
Q 1191 2003 1191 1497 
Q 1191 994 1439 701 
Q 1688 409 2113 409 
Q 2538 409 2786 701 
Q 3034 994 3034 1497 
Q 3034 2003 2786 2293 
Q 2538 2584 2113 2584 
z
M 3366 4563 
L 3366 3988 
Q 3128 4100 2886 4159 
Q 2644 4219 2406 4219 
Q 1781 4219 1451 3797 
Q 1122 3375 1075 2522 
Q 1259 2794 1537 2939 
Q 1816 3084 2150 3084 
Q 2853 3084 3261 2657 
Q 3669 2231 3669 1497 
Q 3669 778 3244 343 
Q 2819 -91 2113 -91 
Q 1303 -91 875 529 
Q 447 1150 447 2328 
Q 447 3434 972 4092 
Q 1497 4750 2381 4750 
Q 2619 4750 2861 4703 
Q 3103 4656 3366 4563 
z
" id="DejaVuSans-36" transform="scale(0.015625)"/>
       </defs>
       <use xlink:href="#DejaVuSans-36"/>
       <use x="63.623047" xlink:href="#DejaVuSans-30"/>
      </g>
     </g>
    </g>
    <g id="ytick_8">
     <g id="line2d_17">
      <path clip-path="url(#pe75a318144)" d="M 40.603125 91.764394 
L 497.14858 91.764394 
" style="fill:none;stroke:#b0b0b0;stroke-linecap:square;stroke-width:0.8;"/>
     </g>
     <g id="line2d_18">
      <g>
       <use style="stroke:#000000;stroke-width:0.8;" x="40.603125" xlink:href="#m14f33c8489" y="91.764394"/>
      </g>
     </g>
     <g id="text_11">
      <!-- 70 -->
      <g transform="translate(20.878125 95.563613)scale(0.1 -0.1)">
       <defs>
        <path d="M 525 4666 
L 3525 4666 
L 3525 4397 
L 1831 0 
L 1172 0 
L 2766 4134 
L 525 4134 
L 525 4666 
z
" id="DejaVuSans-37" transform="scale(0.015625)"/>
       </defs>
       <use xlink:href="#DejaVuSans-37"/>
       <use x="63.623047" xlink:href="#DejaVuSans-30"/>
      </g>
     </g>
    </g>
    <g id="ytick_9">
     <g id="line2d_19">
      <path clip-path="url(#pe75a318144)" d="M 40.603125 42.085398 
L 497.14858 42.085398 
" style="fill:none;stroke:#b0b0b0;stroke-linecap:square;stroke-width:0.8;"/>
     </g>
     <g id="line2d_20">
      <g>
       <use style="stroke:#000000;stroke-width:0.8;" x="40.603125" xlink:href="#m14f33c8489" y="42.085398"/>
      </g>
     </g>
     <g id="text_12">
      <!-- 80 -->
      <g transform="translate(20.878125 45.884616)scale(0.1 -0.1)">
       <defs>
        <path d="M 2034 2216 
Q 1584 2216 1326 1975 
Q 1069 1734 1069 1313 
Q 1069 891 1326 650 
Q 1584 409 2034 409 
Q 2484 409 2743 651 
Q 3003 894 3003 1313 
Q 3003 1734 2745 1975 
Q 2488 2216 2034 2216 
z
M 1403 2484 
Q 997 2584 770 2862 
Q 544 3141 544 3541 
Q 544 4100 942 4425 
Q 1341 4750 2034 4750 
Q 2731 4750 3128 4425 
Q 3525 4100 3525 3541 
Q 3525 3141 3298 2862 
Q 3072 2584 2669 2484 
Q 3125 2378 3379 2068 
Q 3634 1759 3634 1313 
Q 3634 634 3220 271 
Q 2806 -91 2034 -91 
Q 1263 -91 848 271 
Q 434 634 434 1313 
Q 434 1759 690 2068 
Q 947 2378 1403 2484 
z
M 1172 3481 
Q 1172 3119 1398 2916 
Q 1625 2713 2034 2713 
Q 2441 2713 2670 2916 
Q 2900 3119 2900 3481 
Q 2900 3844 2670 4047 
Q 2441 4250 2034 4250 
Q 1625 4250 1398 4047 
Q 1172 3844 1172 3481 
z
" id="DejaVuSans-38" transform="scale(0.015625)"/>
       </defs>
       <use xlink:href="#DejaVuSans-38"/>
       <use x="63.623047" xlink:href="#DejaVuSans-30"/>
      </g>
     </g>
    </g>
    <g id="text_13">
     <!-- Age -->
     <g transform="translate(14.798438 249.429219)rotate(-90)scale(0.1 -0.1)">
      <defs>
       <path d="M 2188 4044 
L 1331 1722 
L 3047 1722 
L 2188 4044 
z
M 1831 4666 
L 2547 4666 
L 4325 0 
L 3669 0 
L 3244 1197 
L 1141 1197 
L 716 0 
L 50 0 
L 1831 4666 
z
" id="DejaVuSans-41" transform="scale(0.015625)"/>
       <path d="M 2906 1791 
Q 2906 2416 2648 2759 
Q 2391 3103 1925 3103 
Q 1463 3103 1205 2759 
Q 947 2416 947 1791 
Q 947 1169 1205 825 
Q 1463 481 1925 481 
Q 2391 481 2648 825 
Q 2906 1169 2906 1791 
z
M 3481 434 
Q 3481 -459 3084 -895 
Q 2688 -1331 1869 -1331 
Q 1566 -1331 1297 -1286 
Q 1028 -1241 775 -1147 
L 775 -588 
Q 1028 -725 1275 -790 
Q 1522 -856 1778 -856 
Q 2344 -856 2625 -561 
Q 2906 -266 2906 331 
L 2906 616 
Q 2728 306 2450 153 
Q 2172 0 1784 0 
Q 1141 0 747 490 
Q 353 981 353 1791 
Q 353 2603 747 3093 
Q 1141 3584 1784 3584 
Q 2172 3584 2450 3431 
Q 2728 3278 2906 2969 
L 2906 3500 
L 3481 3500 
L 3481 434 
z
" id="DejaVuSans-67" transform="scale(0.015625)"/>
      </defs>
      <use xlink:href="#DejaVuSans-41"/>
      <use x="68.408203" xlink:href="#DejaVuSans-67"/>
      <use x="131.884766" xlink:href="#DejaVuSans-65"/>
     </g>
    </g>
   </g>
   <g id="line2d_21">
    <path clip-path="url(#pe75a318144)" d="M 154.739489 345.127277 
L 154.739489 437.430852 
" style="fill:none;stroke:#000000;stroke-linecap:square;"/>
   </g>
   <g id="line2d_22">
    <path clip-path="url(#pe75a318144)" d="M 154.739489 260.672983 
L 154.739489 141.443391 
" style="fill:none;stroke:#000000;stroke-linecap:square;"/>
   </g>
   <g id="line2d_23">
    <path clip-path="url(#pe75a318144)" d="M 146.179261 437.430852 
L 163.299716 437.430852 
" style="fill:none;stroke:#000000;stroke-linecap:square;"/>
   </g>
   <g id="line2d_24">
    <path clip-path="url(#pe75a318144)" d="M 146.179261 141.443391 
L 163.299716 141.443391 
" style="fill:none;stroke:#000000;stroke-linecap:square;"/>
   </g>
   <g id="line2d_25">
    <defs>
     <path d="M 0 3 
C 0.795609 3 1.55874 2.683901 2.12132 2.12132 
C 2.683901 1.55874 3 0.795609 3 0 
C 3 -0.795609 2.683901 -1.55874 2.12132 -2.12132 
C 1.55874 -2.683901 0.795609 -3 0 -3 
C -0.795609 -3 -1.55874 -2.683901 -2.12132 -2.12132 
C -2.683901 -1.55874 -3 -0.795609 -3 0 
C -3 0.795609 -2.683901 1.55874 -2.12132 2.12132 
C -1.55874 2.683901 -0.795609 3 0 3 
z
" id="m0020005940" style="stroke:#000000;"/>
    </defs>
    <g clip-path="url(#pe75a318144)">
     <use style="fill-opacity:0;stroke:#000000;" x="154.739489" xlink:href="#m0020005940" y="126.539692"/>
     <use style="fill-opacity:0;stroke:#000000;" x="154.739489" xlink:href="#m0020005940" y="126.539692"/>
     <use style="fill-opacity:0;stroke:#000000;" x="154.739489" xlink:href="#m0020005940" y="131.507592"/>
     <use style="fill-opacity:0;stroke:#000000;" x="154.739489" xlink:href="#m0020005940" y="42.085398"/>
     <use style="fill-opacity:0;stroke:#000000;" x="154.739489" xlink:href="#m0020005940" y="131.507592"/>
    </g>
   </g>
   <g id="line2d_26">
    <path clip-path="url(#pe75a318144)" d="M 383.012216 335.191477 
L 383.012216 434.54947 
" style="fill:none;stroke:#000000;stroke-linecap:square;"/>
   </g>
   <g id="line2d_27">
    <path clip-path="url(#pe75a318144)" d="M 383.012216 245.769284 
L 383.012216 111.635993 
" style="fill:none;stroke:#000000;stroke-linecap:square;"/>
   </g>
   <g id="line2d_28">
    <path clip-path="url(#pe75a318144)" d="M 374.451989 434.54947 
L 391.572443 434.54947 
" style="fill:none;stroke:#000000;stroke-linecap:square;"/>
   </g>
   <g id="line2d_29">
    <path clip-path="url(#pe75a318144)" d="M 374.451989 111.635993 
L 391.572443 111.635993 
" style="fill:none;stroke:#000000;stroke-linecap:square;"/>
   </g>
   <g id="line2d_30">
    <g clip-path="url(#pe75a318144)">
     <use style="fill-opacity:0;stroke:#000000;" x="383.012216" xlink:href="#m0020005940" y="86.796495"/>
     <use style="fill-opacity:0;stroke:#000000;" x="383.012216" xlink:href="#m0020005940" y="89.280444"/>
     <use style="fill-opacity:0;stroke:#000000;" x="383.012216" xlink:href="#m0020005940" y="86.796495"/>
     <use style="fill-opacity:0;stroke:#000000;" x="383.012216" xlink:href="#m0020005940" y="91.764394"/>
     <use style="fill-opacity:0;stroke:#000000;" x="383.012216" xlink:href="#m0020005940" y="91.764394"/>
     <use style="fill-opacity:0;stroke:#000000;" x="383.012216" xlink:href="#m0020005940" y="71.892796"/>
    </g>
   </g>
   <g id="patch_3">
    <path clip-path="url(#pe75a318144)" d="M 137.619034 345.127277 
L 171.859943 345.127277 
L 171.859943 260.672983 
L 137.619034 260.672983 
L 137.619034 345.127277 
z
" style="fill:#ffc0cb;stroke:#000000;stroke-linejoin:miter;"/>
   </g>
   <g id="patch_4">
    <path clip-path="url(#pe75a318144)" d="M 365.891761 335.191477 
L 400.13267 335.191477 
L 400.13267 245.769284 
L 365.891761 245.769284 
L 365.891761 335.191477 
z
" style="fill:#add8e6;stroke:#000000;stroke-linejoin:miter;"/>
   </g>
   <g id="line2d_31">
    <path clip-path="url(#pe75a318144)" d="M 137.619034 300.41618 
L 171.859943 300.41618 
" style="fill:none;stroke:#97f0aa;stroke-linecap:square;"/>
   </g>
   <g id="line2d_32">
    <path clip-path="url(#pe75a318144)" d="M 365.891761 300.41618 
L 400.13267 300.41618 
" style="fill:none;stroke:#97f0aa;stroke-linecap:square;"/>
   </g>
   <g id="patch_5">
    <path d="M 40.603125 457.198125 
L 40.603125 22.318125 
" style="fill:none;stroke:#000000;stroke-linecap:square;stroke-linejoin:miter;stroke-width:0.8;"/>
   </g>
   <g id="patch_6">
    <path d="M 497.14858 457.198125 
L 497.14858 22.318125 
" style="fill:none;stroke:#000000;stroke-linecap:square;stroke-linejoin:miter;stroke-width:0.8;"/>
   </g>
   <g id="patch_7">
    <path d="M 40.603125 457.198125 
L 497.14858 457.198125 
" style="fill:none;stroke:#000000;stroke-linecap:square;stroke-linejoin:miter;stroke-width:0.8;"/>
   </g>
   <g id="patch_8">
    <path d="M 40.603125 22.318125 
L 497.14858 22.318125 
" style="fill:none;stroke:#000000;stroke-linecap:square;stroke-linejoin:miter;stroke-width:0.8;"/>
   </g>
   <g id="text_14">
    <!-- Rectangular box plot -->
    <g transform="translate(206.575227 16.318125)scale(0.12 -0.12)">
     <defs>
      <path d="M 2841 2188 
Q 3044 2119 3236 1894 
Q 3428 1669 3622 1275 
L 4263 0 
L 3584 0 
L 2988 1197 
Q 2756 1666 2539 1819 
Q 2322 1972 1947 1972 
L 1259 1972 
L 1259 0 
L 628 0 
L 628 4666 
L 2053 4666 
Q 2853 4666 3247 4331 
Q 3641 3997 3641 3322 
Q 3641 2881 3436 2590 
Q 3231 2300 2841 2188 
z
M 1259 4147 
L 1259 2491 
L 2053 2491 
Q 2509 2491 2742 2702 
Q 2975 2913 2975 3322 
Q 2975 3731 2742 3939 
Q 2509 4147 2053 4147 
L 1259 4147 
z
" id="DejaVuSans-52" transform="scale(0.015625)"/>
      <path d="M 3122 3366 
L 3122 2828 
Q 2878 2963 2633 3030 
Q 2388 3097 2138 3097 
Q 1578 3097 1268 2742 
Q 959 2388 959 1747 
Q 959 1106 1268 751 
Q 1578 397 2138 397 
Q 2388 397 2633 464 
Q 2878 531 3122 666 
L 3122 134 
Q 2881 22 2623 -34 
Q 2366 -91 2075 -91 
Q 1284 -91 818 406 
Q 353 903 353 1747 
Q 353 2603 823 3093 
Q 1294 3584 2113 3584 
Q 2378 3584 2631 3529 
Q 2884 3475 3122 3366 
z
" id="DejaVuSans-63" transform="scale(0.015625)"/>
      <path d="M 2194 1759 
Q 1497 1759 1228 1600 
Q 959 1441 959 1056 
Q 959 750 1161 570 
Q 1363 391 1709 391 
Q 2188 391 2477 730 
Q 2766 1069 2766 1631 
L 2766 1759 
L 2194 1759 
z
M 3341 1997 
L 3341 0 
L 2766 0 
L 2766 531 
Q 2569 213 2275 61 
Q 1981 -91 1556 -91 
Q 1019 -91 701 211 
Q 384 513 384 1019 
Q 384 1609 779 1909 
Q 1175 2209 1959 2209 
L 2766 2209 
L 2766 2266 
Q 2766 2663 2505 2880 
Q 2244 3097 1772 3097 
Q 1472 3097 1187 3025 
Q 903 2953 641 2809 
L 641 3341 
Q 956 3463 1253 3523 
Q 1550 3584 1831 3584 
Q 2591 3584 2966 3190 
Q 3341 2797 3341 1997 
z
" id="DejaVuSans-61" transform="scale(0.015625)"/>
      <path d="M 3513 2113 
L 3513 0 
L 2938 0 
L 2938 2094 
Q 2938 2591 2744 2837 
Q 2550 3084 2163 3084 
Q 1697 3084 1428 2787 
Q 1159 2491 1159 1978 
L 1159 0 
L 581 0 
L 581 3500 
L 1159 3500 
L 1159 2956 
Q 1366 3272 1645 3428 
Q 1925 3584 2291 3584 
Q 2894 3584 3203 3211 
Q 3513 2838 3513 2113 
z
" id="DejaVuSans-6e" transform="scale(0.015625)"/>
      <path d="M 603 4863 
L 1178 4863 
L 1178 0 
L 603 0 
L 603 4863 
z
" id="DejaVuSans-6c" transform="scale(0.015625)"/>
      <path d="M 3116 1747 
Q 3116 2381 2855 2742 
Q 2594 3103 2138 3103 
Q 1681 3103 1420 2742 
Q 1159 2381 1159 1747 
Q 1159 1113 1420 752 
Q 1681 391 2138 391 
Q 2594 391 2855 752 
Q 3116 1113 3116 1747 
z
M 1159 2969 
Q 1341 3281 1617 3432 
Q 1894 3584 2278 3584 
Q 2916 3584 3314 3078 
Q 3713 2572 3713 1747 
Q 3713 922 3314 415 
Q 2916 -91 2278 -91 
Q 1894 -91 1617 61 
Q 1341 213 1159 525 
L 1159 0 
L 581 0 
L 581 4863 
L 1159 4863 
L 1159 2969 
z
" id="DejaVuSans-62" transform="scale(0.015625)"/>
      <path d="M 3513 3500 
L 2247 1797 
L 3578 0 
L 2900 0 
L 1881 1375 
L 863 0 
L 184 0 
L 1544 1831 
L 300 3500 
L 978 3500 
L 1906 2253 
L 2834 3500 
L 3513 3500 
z
" id="DejaVuSans-78" transform="scale(0.015625)"/>
      <path d="M 1159 525 
L 1159 -1331 
L 581 -1331 
L 581 3500 
L 1159 3500 
L 1159 2969 
Q 1341 3281 1617 3432 
Q 1894 3584 2278 3584 
Q 2916 3584 3314 3078 
Q 3713 2572 3713 1747 
Q 3713 922 3314 415 
Q 2916 -91 2278 -91 
Q 1894 -91 1617 61 
Q 1341 213 1159 525 
z
M 3116 1747 
Q 3116 2381 2855 2742 
Q 2594 3103 2138 3103 
Q 1681 3103 1420 2742 
Q 1159 2381 1159 1747 
Q 1159 1113 1420 752 
Q 1681 391 2138 391 
Q 2594 391 2855 752 
Q 3116 1113 3116 1747 
z
" id="DejaVuSans-70" transform="scale(0.015625)"/>
     </defs>
     <use xlink:href="#DejaVuSans-52"/>
     <use x="64.982422" xlink:href="#DejaVuSans-65"/>
     <use x="126.505859" xlink:href="#DejaVuSans-63"/>
     <use x="181.486328" xlink:href="#DejaVuSans-74"/>
     <use x="220.695312" xlink:href="#DejaVuSans-61"/>
     <use x="281.974609" xlink:href="#DejaVuSans-6e"/>
     <use x="345.353516" xlink:href="#DejaVuSans-67"/>
     <use x="408.830078" xlink:href="#DejaVuSans-75"/>
     <use x="472.208984" xlink:href="#DejaVuSans-6c"/>
     <use x="499.992188" xlink:href="#DejaVuSans-61"/>
     <use x="561.271484" xlink:href="#DejaVuSans-72"/>
     <use x="602.384766" xlink:href="#DejaVuSans-20"/>
     <use x="634.171875" xlink:href="#DejaVuSans-62"/>
     <use x="697.648438" xlink:href="#DejaVuSans-6f"/>
     <use x="755.705078" xlink:href="#DejaVuSans-78"/>
     <use x="814.884766" xlink:href="#DejaVuSans-20"/>
     <use x="846.671875" xlink:href="#DejaVuSans-70"/>
     <use x="910.148438" xlink:href="#DejaVuSans-6c"/>
     <use x="937.931641" xlink:href="#DejaVuSans-6f"/>
     <use x="999.113281" xlink:href="#DejaVuSans-74"/>
    </g>
   </g>
  </g>
  <g id="axes_2">
   <g id="patch_9">
    <path d="M 588.45767 457.198125 
L 1045.003125 457.198125 
L 1045.003125 22.318125 
L 588.45767 22.318125 
z
" style="fill:#ffffff;"/>
   </g>
   <g id="PolyCollection_1">
    <path clip-path="url(#pb6cae4188c)" d="M 699.427085 437.430852 
L 657.339496 437.430852 
L 655.722416 433.437464 
L 654.472045 429.444075 
L 653.625569 425.450687 
L 653.18303 421.457299 
L 653.105424 417.46391 
L 653.317182 413.470522 
L 653.712784 409.477133 
L 654.166633 405.483745 
L 654.544938 401.490356 
L 654.718198 397.496968 
L 654.57283 393.50358 
L 654.02076 389.510191 
L 653.006036 385.516803 
L 651.507994 381.523414 
L 649.540832 377.530026 
L 647.149946 373.536637 
L 644.405641 369.543249 
L 641.395145 365.549861 
L 638.213992 361.556472 
L 634.957818 357.563084 
L 631.715475 353.569695 
L 628.564097 349.576307 
L 625.566361 345.582918 
L 622.769833 341.58953 
L 620.207995 337.596142 
L 617.902357 333.602753 
L 615.865055 329.609365 
L 614.101447 325.615976 
L 612.6124 321.622588 
L 611.396168 317.629199 
L 610.449896 313.635811 
L 609.770844 309.642423 
L 609.357381 305.649034 
L 609.209737 301.655646 
L 609.330385 297.662257 
L 609.723908 293.668869 
L 610.396199 289.67548 
L 611.352967 285.682092 
L 612.597633 281.688704 
L 614.128874 277.695315 
L 615.938162 273.701927 
L 618.007727 269.708538 
L 620.309306 265.71515 
L 622.803973 261.721761 
L 625.443144 257.728373 
L 628.170703 253.734985 
L 630.926031 249.741596 
L 633.647615 245.748208 
L 636.276876 241.754819 
L 638.76187 237.761431 
L 641.060573 233.768042 
L 643.143508 229.774654 
L 644.99552 225.781265 
L 646.616546 221.787877 
L 648.021233 217.794489 
L 649.237341 213.8011 
L 650.302953 209.807712 
L 651.262648 205.814323 
L 652.162994 201.820935 
L 653.047865 197.827546 
L 653.954158 193.834158 
L 654.908514 189.84077 
L 655.925495 185.847381 
L 657.007432 181.853993 
L 658.145915 177.860604 
L 659.324571 173.867216 
L 660.522626 169.873827 
L 661.718606 165.880439 
L 662.893587 161.887051 
L 664.033528 157.893662 
L 665.130426 153.900274 
L 666.18224 149.906885 
L 667.191772 145.913497 
L 668.164818 141.920108 
L 669.108003 137.92672 
L 670.026712 133.933332 
L 670.923473 129.939943 
L 671.797043 125.946555 
L 672.64228 121.953166 
L 673.450762 117.959778 
L 674.211967 113.966389 
L 674.914763 109.973001 
L 675.548919 105.979613 
L 676.10639 101.986224 
L 676.582193 97.992836 
L 676.97481 93.999447 
L 677.286128 90.006059 
L 677.521035 86.01267 
L 677.686802 82.019282 
L 677.792394 78.025894 
L 677.847826 74.032505 
L 677.863614 70.039117 
L 677.85033 66.045728 
L 677.818237 62.05234 
L 677.776955 58.058951 
L 677.735129 54.065563 
L 677.70009 50.072175 
L 677.677536 46.078786 
L 677.671276 42.085398 
L 679.095304 42.085398 
L 679.095304 42.085398 
L 679.089045 46.078786 
L 679.06649 50.072175 
L 679.031451 54.065563 
L 678.989625 58.058951 
L 678.948343 62.05234 
L 678.91625 66.045728 
L 678.902966 70.039117 
L 678.918754 74.032505 
L 678.974187 78.025894 
L 679.079779 82.019282 
L 679.245546 86.01267 
L 679.480453 90.006059 
L 679.791771 93.999447 
L 680.184387 97.992836 
L 680.660191 101.986224 
L 681.217662 105.979613 
L 681.851818 109.973001 
L 682.554614 113.966389 
L 683.315819 117.959778 
L 684.124301 121.953166 
L 684.969538 125.946555 
L 685.843108 129.939943 
L 686.739869 133.933332 
L 687.658577 137.92672 
L 688.601763 141.920108 
L 689.574809 145.913497 
L 690.584341 149.906885 
L 691.636154 153.900274 
L 692.733052 157.893662 
L 693.872994 161.887051 
L 695.047974 165.880439 
L 696.243954 169.873827 
L 697.44201 173.867216 
L 698.620666 177.860604 
L 699.759148 181.853993 
L 700.841086 185.847381 
L 701.858066 189.84077 
L 702.812423 193.834158 
L 703.718715 197.827546 
L 704.603586 201.820935 
L 705.503933 205.814323 
L 706.463627 209.807712 
L 707.529239 213.8011 
L 708.745348 217.794489 
L 710.150034 221.787877 
L 711.77106 225.781265 
L 713.623073 229.774654 
L 715.706007 233.768042 
L 718.004711 237.761431 
L 720.489705 241.754819 
L 723.118966 245.748208 
L 725.84055 249.741596 
L 728.595878 253.734985 
L 731.323437 257.728373 
L 733.962608 261.721761 
L 736.457275 265.71515 
L 738.758854 269.708538 
L 740.828418 273.701927 
L 742.637706 277.695315 
L 744.168947 281.688704 
L 745.413614 285.682092 
L 746.370382 289.67548 
L 747.042673 293.668869 
L 747.436196 297.662257 
L 747.556844 301.655646 
L 747.409199 305.649034 
L 746.995736 309.642423 
L 746.316684 313.635811 
L 745.370413 317.629199 
L 744.154181 321.622588 
L 742.665134 325.615976 
L 740.901526 329.609365 
L 738.864224 333.602753 
L 736.558585 337.596142 
L 733.996747 341.58953 
L 731.20022 345.582918 
L 728.202483 349.576307 
L 725.051106 353.569695 
L 721.808763 357.563084 
L 718.552588 361.556472 
L 715.371436 365.549861 
L 712.36094 369.543249 
L 709.616634 373.536637 
L 707.225749 377.530026 
L 705.258587 381.523414 
L 703.760544 385.516803 
L 702.745821 389.510191 
L 702.19375 393.50358 
L 702.048383 397.496968 
L 702.221642 401.490356 
L 702.599948 405.483745 
L 703.053796 409.477133 
L 703.449399 413.470522 
L 703.661157 417.46391 
L 703.58355 421.457299 
L 703.141012 425.450687 
L 702.294535 429.444075 
L 701.044165 433.437464 
L 699.427085 437.430852 
z
" style="fill:#92c6ff;fill-opacity:0.3;"/>
   </g>
   <g id="PolyCollection_2">
    <path clip-path="url(#pb6cae4188c)" d="M 962.30658 434.54947 
L 947.848431 434.54947 
L 947.118004 430.886272 
L 946.451943 427.223073 
L 945.855038 423.559874 
L 945.322366 419.896676 
L 944.839465 416.233477 
L 944.382954 412.570278 
L 943.921161 408.907079 
L 943.414463 405.243881 
L 942.815371 401.580682 
L 942.068732 397.917483 
L 941.112692 394.254284 
L 939.881138 390.591086 
L 938.308094 386.927887 
L 936.334139 383.264688 
L 933.914287 379.601489 
L 931.02625 375.938291 
L 927.67762 372.275092 
L 923.910477 368.611893 
L 919.802216 364.948694 
L 915.461995 361.285496 
L 911.022977 357.622297 
L 906.631301 353.959098 
L 902.433289 350.2959 
L 898.56274 346.632701 
L 895.130068 342.969502 
L 892.214713 339.306303 
L 889.86166 335.643105 
L 888.082196 331.979906 
L 886.85838 328.316707 
L 886.150183 324.653508 
L 885.903951 320.99031 
L 886.060773 317.327111 
L 886.563515 313.663912 
L 887.361671 310.000713 
L 888.413618 306.337515 
L 889.686392 302.674316 
L 891.153564 299.011117 
L 892.792044 295.347919 
L 894.578784 291.68472 
L 896.488221 288.021521 
L 898.491018 284.358322 
L 900.55429 280.695124 
L 902.643118 277.031925 
L 904.72289 273.368726 
L 906.76185 269.705527 
L 908.733303 266.042329 
L 910.617077 262.37913 
L 912.400091 258.715931 
L 914.076081 255.052732 
L 915.644753 251.389534 
L 917.110649 247.726335 
L 918.48202 244.063136 
L 919.769881 240.399937 
L 920.987296 236.736739 
L 922.148819 233.07354 
L 923.269953 229.410341 
L 924.366462 225.747143 
L 925.453479 222.083944 
L 926.544395 218.420745 
L 927.649681 214.757546 
L 928.775832 211.094348 
L 929.924642 207.431149 
L 931.092997 203.76795 
L 932.273222 200.104751 
L 933.453959 196.441553 
L 934.621414 192.778354 
L 935.760778 189.115155 
L 936.857625 185.451956 
L 937.899124 181.788758 
L 938.874983 178.125559 
L 939.778086 174.46236 
L 940.604831 170.799162 
L 941.355209 167.135963 
L 942.032651 163.472764 
L 942.643666 159.809565 
L 943.19728 156.146367 
L 943.70431 152.483168 
L 944.176489 148.819969 
L 944.625504 145.15677 
L 945.062011 141.493572 
L 945.49474 137.830373 
L 945.929778 134.167174 
L 946.370147 130.503975 
L 946.815754 126.840777 
L 947.263764 123.177578 
L 947.709372 119.514379 
L 948.146891 115.85118 
L 948.570986 112.187982 
L 948.97784 108.524783 
L 949.36602 104.861584 
L 949.736846 101.198386 
L 950.094164 97.535187 
L 950.443553 93.871988 
L 950.791108 90.208789 
L 951.142081 86.545591 
L 951.499667 82.882392 
L 951.864198 79.219193 
L 952.232908 75.555994 
L 952.600294 71.892796 
L 957.554716 71.892796 
L 957.554716 71.892796 
L 957.922103 75.555994 
L 958.290812 79.219193 
L 958.655343 82.882392 
L 959.01293 86.545591 
L 959.363903 90.208789 
L 959.711457 93.871988 
L 960.060846 97.535187 
L 960.418165 101.198386 
L 960.78899 104.861584 
L 961.17717 108.524783 
L 961.584024 112.187982 
L 962.00812 115.85118 
L 962.445639 119.514379 
L 962.891247 123.177578 
L 963.339256 126.840777 
L 963.784863 130.503975 
L 964.225232 134.167174 
L 964.66027 137.830373 
L 965.093 141.493572 
L 965.529507 145.15677 
L 965.978521 148.819969 
L 966.4507 152.483168 
L 966.95773 156.146367 
L 967.511344 159.809565 
L 968.122359 163.472764 
L 968.799801 167.135963 
L 969.550179 170.799162 
L 970.376924 174.46236 
L 971.280027 178.125559 
L 972.255887 181.788758 
L 973.297385 185.451956 
L 974.394232 189.115155 
L 975.533596 192.778354 
L 976.701051 196.441553 
L 977.881788 200.104751 
L 979.062013 203.76795 
L 980.230368 207.431149 
L 981.379179 211.094348 
L 982.505329 214.757546 
L 983.610615 218.420745 
L 984.701531 222.083944 
L 985.788548 225.747143 
L 986.885058 229.410341 
L 988.006191 233.07354 
L 989.167715 236.736739 
L 990.38513 240.399937 
L 991.672991 244.063136 
L 993.044362 247.726335 
L 994.510258 251.389534 
L 996.078929 255.052732 
L 997.754919 258.715931 
L 999.537933 262.37913 
L 1001.421708 266.042329 
L 1003.39316 269.705527 
L 1005.43212 273.368726 
L 1007.511892 277.031925 
L 1009.600721 280.695124 
L 1011.663992 284.358322 
L 1013.666789 288.021521 
L 1015.576226 291.68472 
L 1017.362966 295.347919 
L 1019.001446 299.011117 
L 1020.468618 302.674316 
L 1021.741393 306.337515 
L 1022.793339 310.000713 
L 1023.591496 313.663912 
L 1024.094238 317.327111 
L 1024.251059 320.99031 
L 1024.004828 324.653508 
L 1023.296631 328.316707 
L 1022.072814 331.979906 
L 1020.29335 335.643105 
L 1017.940297 339.306303 
L 1015.024942 342.969502 
L 1011.59227 346.632701 
L 1007.721721 350.2959 
L 1003.52371 353.959098 
L 999.132033 357.622297 
L 994.693016 361.285496 
L 990.352794 364.948694 
L 986.244533 368.611893 
L 982.47739 372.275092 
L 979.12876 375.938291 
L 976.240723 379.601489 
L 973.820871 383.264688 
L 971.846916 386.927887 
L 970.273873 390.591086 
L 969.042318 394.254284 
L 968.086279 397.917483 
L 967.339639 401.580682 
L 966.740547 405.243881 
L 966.233849 408.907079 
L 965.772056 412.570278 
L 965.315545 416.233477 
L 964.832644 419.896676 
L 964.299972 423.559874 
L 963.703067 427.223073 
L 963.037006 430.886272 
L 962.30658 434.54947 
z
" style="fill:#92c6ff;fill-opacity:0.3;"/>
   </g>
   <g id="matplotlib.axis_3">
    <g id="xtick_3">
     <g id="line2d_33">
      <g>
       <use style="stroke:#000000;stroke-width:0.8;" x="678.38329" xlink:href="#mff746ffc27" y="457.198125"/>
      </g>
     </g>
     <g id="text_15">
      <!-- Survived -->
      <g transform="translate(656.426259 471.796562)scale(0.1 -0.1)">
       <use xlink:href="#DejaVuSans-53"/>
       <use x="63.476562" xlink:href="#DejaVuSans-75"/>
       <use x="126.855469" xlink:href="#DejaVuSans-72"/>
       <use x="167.96875" xlink:href="#DejaVuSans-76"/>
       <use x="227.148438" xlink:href="#DejaVuSans-69"/>
       <use x="254.931641" xlink:href="#DejaVuSans-76"/>
       <use x="314.111328" xlink:href="#DejaVuSans-65"/>
       <use x="375.634766" xlink:href="#DejaVuSans-64"/>
      </g>
     </g>
    </g>
    <g id="xtick_4">
     <g id="line2d_34">
      <g>
       <use style="stroke:#000000;stroke-width:0.8;" x="955.077505" xlink:href="#mff746ffc27" y="457.198125"/>
      </g>
     </g>
     <g id="text_16">
      <!-- Not Survived -->
      <g transform="translate(922.771255 471.796562)scale(0.1 -0.1)">
       <use xlink:href="#DejaVuSans-4e"/>
       <use x="74.804688" xlink:href="#DejaVuSans-6f"/>
       <use x="135.986328" xlink:href="#DejaVuSans-74"/>
       <use x="175.195312" xlink:href="#DejaVuSans-20"/>
       <use x="206.982422" xlink:href="#DejaVuSans-53"/>
       <use x="270.458984" xlink:href="#DejaVuSans-75"/>
       <use x="333.837891" xlink:href="#DejaVuSans-72"/>
       <use x="374.951172" xlink:href="#DejaVuSans-76"/>
       <use x="434.130859" xlink:href="#DejaVuSans-69"/>
       <use x="461.914062" xlink:href="#DejaVuSans-76"/>
       <use x="521.09375" xlink:href="#DejaVuSans-65"/>
       <use x="582.617188" xlink:href="#DejaVuSans-64"/>
      </g>
     </g>
    </g>
   </g>
   <g id="matplotlib.axis_4">
    <g id="ytick_10">
     <g id="line2d_35">
      <g>
       <use style="stroke:#000000;stroke-width:0.8;" x="588.45767" xlink:href="#m14f33c8489" y="439.51737"/>
      </g>
     </g>
     <g id="text_17">
      <!-- 0 -->
      <g transform="translate(575.09517 443.316589)scale(0.1 -0.1)">
       <use xlink:href="#DejaVuSans-30"/>
      </g>
     </g>
    </g>
    <g id="ytick_11">
     <g id="line2d_36">
      <g>
       <use style="stroke:#000000;stroke-width:0.8;" x="588.45767" xlink:href="#m14f33c8489" y="389.838374"/>
      </g>
     </g>
     <g id="text_18">
      <!-- 10 -->
      <g transform="translate(568.73267 393.637592)scale(0.1 -0.1)">
       <use xlink:href="#DejaVuSans-31"/>
       <use x="63.623047" xlink:href="#DejaVuSans-30"/>
      </g>
     </g>
    </g>
    <g id="ytick_12">
     <g id="line2d_37">
      <g>
       <use style="stroke:#000000;stroke-width:0.8;" x="588.45767" xlink:href="#m14f33c8489" y="340.159377"/>
      </g>
     </g>
     <g id="text_19">
      <!-- 20 -->
      <g transform="translate(568.73267 343.958596)scale(0.1 -0.1)">
       <use xlink:href="#DejaVuSans-32"/>
       <use x="63.623047" xlink:href="#DejaVuSans-30"/>
      </g>
     </g>
    </g>
    <g id="ytick_13">
     <g id="line2d_38">
      <g>
       <use style="stroke:#000000;stroke-width:0.8;" x="588.45767" xlink:href="#m14f33c8489" y="290.48038"/>
      </g>
     </g>
     <g id="text_20">
      <!-- 30 -->
      <g transform="translate(568.73267 294.279599)scale(0.1 -0.1)">
       <use xlink:href="#DejaVuSans-33"/>
       <use x="63.623047" xlink:href="#DejaVuSans-30"/>
      </g>
     </g>
    </g>
    <g id="ytick_14">
     <g id="line2d_39">
      <g>
       <use style="stroke:#000000;stroke-width:0.8;" x="588.45767" xlink:href="#m14f33c8489" y="240.801384"/>
      </g>
     </g>
     <g id="text_21">
      <!-- 40 -->
      <g transform="translate(568.73267 244.600603)scale(0.1 -0.1)">
       <use xlink:href="#DejaVuSans-34"/>
       <use x="63.623047" xlink:href="#DejaVuSans-30"/>
      </g>
     </g>
    </g>
    <g id="ytick_15">
     <g id="line2d_40">
      <g>
       <use style="stroke:#000000;stroke-width:0.8;" x="588.45767" xlink:href="#m14f33c8489" y="191.122387"/>
      </g>
     </g>
     <g id="text_22">
      <!-- 50 -->
      <g transform="translate(568.73267 194.921606)scale(0.1 -0.1)">
       <use xlink:href="#DejaVuSans-35"/>
       <use x="63.623047" xlink:href="#DejaVuSans-30"/>
      </g>
     </g>
    </g>
    <g id="ytick_16">
     <g id="line2d_41">
      <g>
       <use style="stroke:#000000;stroke-width:0.8;" x="588.45767" xlink:href="#m14f33c8489" y="141.443391"/>
      </g>
     </g>
     <g id="text_23">
      <!-- 60 -->
      <g transform="translate(568.73267 145.24261)scale(0.1 -0.1)">
       <use xlink:href="#DejaVuSans-36"/>
       <use x="63.623047" xlink:href="#DejaVuSans-30"/>
      </g>
     </g>
    </g>
    <g id="ytick_17">
     <g id="line2d_42">
      <g>
       <use style="stroke:#000000;stroke-width:0.8;" x="588.45767" xlink:href="#m14f33c8489" y="91.764394"/>
      </g>
     </g>
     <g id="text_24">
      <!-- 70 -->
      <g transform="translate(568.73267 95.563613)scale(0.1 -0.1)">
       <use xlink:href="#DejaVuSans-37"/>
       <use x="63.623047" xlink:href="#DejaVuSans-30"/>
      </g>
     </g>
    </g>
    <g id="ytick_18">
     <g id="line2d_43">
      <g>
       <use style="stroke:#000000;stroke-width:0.8;" x="588.45767" xlink:href="#m14f33c8489" y="42.085398"/>
      </g>
     </g>
     <g id="text_25">
      <!-- 80 -->
      <g transform="translate(568.73267 45.884616)scale(0.1 -0.1)">
       <use xlink:href="#DejaVuSans-38"/>
       <use x="63.623047" xlink:href="#DejaVuSans-30"/>
      </g>
     </g>
    </g>
   </g>
   <g id="LineCollection_1">
    <path clip-path="url(#pb6cae4188c)" d="M 643.796513 42.085398 
L 712.970067 42.085398 
" style="fill:none;stroke:#92c6ff;stroke-width:1.5;"/>
    <path clip-path="url(#pb6cae4188c)" d="M 920.490728 71.892796 
L 989.664282 71.892796 
" style="fill:none;stroke:#92c6ff;stroke-width:1.5;"/>
   </g>
   <g id="LineCollection_2">
    <path clip-path="url(#pb6cae4188c)" d="M 643.796513 437.430852 
L 712.970067 437.430852 
" style="fill:none;stroke:#92c6ff;stroke-width:1.5;"/>
    <path clip-path="url(#pb6cae4188c)" d="M 920.490728 434.54947 
L 989.664282 434.54947 
" style="fill:none;stroke:#92c6ff;stroke-width:1.5;"/>
   </g>
   <g id="LineCollection_3">
    <path clip-path="url(#pb6cae4188c)" d="M 678.38329 437.430852 
L 678.38329 42.085398 
" style="fill:none;stroke:#92c6ff;stroke-width:1.5;"/>
    <path clip-path="url(#pb6cae4188c)" d="M 955.077505 434.54947 
L 955.077505 71.892796 
" style="fill:none;stroke:#92c6ff;stroke-width:1.5;"/>
   </g>
   <g id="patch_10">
    <path d="M 588.45767 457.198125 
L 588.45767 22.318125 
" style="fill:none;stroke:#000000;stroke-linecap:square;stroke-linejoin:miter;stroke-width:0.8;"/>
   </g>
   <g id="patch_11">
    <path d="M 1045.003125 457.198125 
L 1045.003125 22.318125 
" style="fill:none;stroke:#000000;stroke-linecap:square;stroke-linejoin:miter;stroke-width:0.8;"/>
   </g>
   <g id="patch_12">
    <path d="M 588.45767 457.198125 
L 1045.003125 457.198125 
" style="fill:none;stroke:#000000;stroke-linecap:square;stroke-linejoin:miter;stroke-width:0.8;"/>
   </g>
   <g id="patch_13">
    <path d="M 588.45767 22.318125 
L 1045.003125 22.318125 
" style="fill:none;stroke:#000000;stroke-linecap:square;stroke-linejoin:miter;stroke-width:0.8;"/>
   </g>
   <g id="text_26">
    <!-- Violin plot -->
    <g transform="translate(786.880398 16.318125)scale(0.12 -0.12)">
     <defs>
      <path d="M 1831 0 
L 50 4666 
L 709 4666 
L 2188 738 
L 3669 4666 
L 4325 4666 
L 2547 0 
L 1831 0 
z
" id="DejaVuSans-56" transform="scale(0.015625)"/>
     </defs>
     <use xlink:href="#DejaVuSans-56"/>
     <use x="66.158203" xlink:href="#DejaVuSans-69"/>
     <use x="93.941406" xlink:href="#DejaVuSans-6f"/>
     <use x="155.123047" xlink:href="#DejaVuSans-6c"/>
     <use x="182.90625" xlink:href="#DejaVuSans-69"/>
     <use x="210.689453" xlink:href="#DejaVuSans-6e"/>
     <use x="274.068359" xlink:href="#DejaVuSans-20"/>
     <use x="305.855469" xlink:href="#DejaVuSans-70"/>
     <use x="369.332031" xlink:href="#DejaVuSans-6c"/>
     <use x="397.115234" xlink:href="#DejaVuSans-6f"/>
     <use x="458.296875" xlink:href="#DejaVuSans-74"/>
    </g>
   </g>
  </g>
 </g>
 <defs>
  <clipPath id="pe75a318144">
   <rect height="434.88" width="456.545455" x="40.603125" y="22.318125"/>
  </clipPath>
  <clipPath id="pb6cae4188c">
   <rect height="434.88" width="456.545455" x="588.45767" y="22.318125"/>
  </clipPath>
 </defs>
</svg>
